<svg id="Layer_1" data-name="Layer 1" xmlns="http://www.w3.org/2000/svg" viewBox="0 0 1920 1080"><defs><style>.cls-1{fill:#209bde;}.cls-2{fill:#43c8e7;}.cls-3{fill:#00b5e4;}.cls-4{fill:#115299;}</style></defs><title>1.DNSPS</title><path class="cls-1" d="M628.67,616l8.44,8.44L586.3,675.24a17.9,17.9,0,0,1-25.3,0l-106-106a17.88,17.88,0,0,1,0-25.3L561,438a17.88,17.88,0,0,1,25.3,0l50.81,50.81-8.44,8.44A84,84,0,0,0,628.67,616Z"/><path class="cls-2" d="M819.22,569.24l-106,106a17.88,17.88,0,0,1-25.3,0l-50.82-50.81,8.44-8.44a84,84,0,0,0,0-118.79l-8.44-8.44L687.93,438a17.88,17.88,0,0,1,25.3,0l106,106A17.88,17.88,0,0,1,819.22,569.24Z"/><path class="cls-3" d="M645.55,616l-8.44,8.44L628.67,616a84,84,0,0,1,0-118.79l8.44-8.44,8.44,8.44A84,84,0,0,1,645.55,616Z"/><path class="cls-4" d="M850.92,647.44V607.56a3.44,3.44,0,0,1,3.43-3.43h1a3.5,3.5,0,0,0,1.71-.43A32.87,32.87,0,0,0,863.4,599a31.84,31.84,0,0,0,6.19-8.7,73.56,73.56,0,0,0,5.08-14,176.08,176.08,0,0,0,4.07-20.82q1.75-12.3,2.68-29.16l3.1-42.85a3.42,3.42,0,0,1,3.42-3.18h59.55a3.42,3.42,0,0,1,3.43,3.42v117a3.43,3.43,0,0,0,3.43,3.43h8.85a3.43,3.43,0,0,1,3.43,3.43v39.88a3.42,3.42,0,0,1-3.43,3.42H950.83a3.43,3.43,0,0,1-3.43-3.22l-1.28-21.84a3.43,3.43,0,0,0-3.42-3.22H875.39a3.42,3.42,0,0,0-3.42,3.2l-1.43,21.88a3.43,3.43,0,0,1-3.42,3.2H854.35A3.43,3.43,0,0,1,850.92,647.44Zm39.2-43.31h31.5A3.42,3.42,0,0,0,925,600.7V502.32a3.42,3.42,0,0,0-3.42-3.43H909.44a3.43,3.43,0,0,0-3.42,3.25l-1.49,28.2q-.75,16.86-2.41,28.55a144,144,0,0,1-3.88,19.33,58.84,58.84,0,0,1-4.9,12.38,36.55,36.55,0,0,1-5.64,7.73h0A3.41,3.41,0,0,0,890.12,604.13Z"/><path class="cls-4" d="M991.22,619.15V483.69a3.42,3.42,0,0,1,3.43-3.42H1015a3.43,3.43,0,0,1,3.43,3.42V536.4a3.43,3.43,0,0,0,3.43,3.43h23.64a3.44,3.44,0,0,0,3.43-3.43V483.69a3.42,3.42,0,0,1,3.43-3.42h20.5a3.43,3.43,0,0,1,3.43,3.42V619.15a3.44,3.44,0,0,1-3.43,3.43h-20.5a3.43,3.43,0,0,1-3.43-3.43V561.7a3.44,3.44,0,0,0-3.43-3.43h-23.64a3.43,3.43,0,0,0-3.43,3.43v57.45a3.44,3.44,0,0,1-3.43,3.43H994.65A3.43,3.43,0,0,1,991.22,619.15Z"/><path class="cls-4" d="M1148.7,624.51q-16.46,0-25.78-6.15a32.17,32.17,0,0,1-13-16.78,74.3,74.3,0,0,1-3.7-24.51V526.3q0-14.58,3.7-25.3a30.5,30.5,0,0,1,13-16.52q9.33-5.79,25.78-5.8,15.54,0,24.31,5A28,28,0,0,1,1185.49,498a58.44,58.44,0,0,1,3.7,21.61v8.52a3.44,3.44,0,0,1-3.43,3.43h-19.39a3.43,3.43,0,0,1-3.43-3.43v-8.87a84.15,84.15,0,0,0-.65-10.89,13.19,13.19,0,0,0-3.51-7.82q-2.88-2.9-9.89-2.9t-10.26,3.07a14.57,14.57,0,0,0-4.16,8.26,66.65,66.65,0,0,0-.92,11.69v61.84a52.33,52.33,0,0,0,1.29,12.74,13.06,13.06,0,0,0,4.71,7.55q3.42,2.55,9.34,2.55,6.84,0,9.7-3.07a14.82,14.82,0,0,0,3.61-8.17,80.53,80.53,0,0,0,.74-11.42v-9.4a3.43,3.43,0,0,1,3.43-3.43h19.39a3.44,3.44,0,0,1,3.43,3.43v8a66,66,0,0,1-3.52,22.4A29.37,29.37,0,0,1,1173.38,619Q1164.61,624.5,1148.7,624.51Z"/><path class="cls-4" d="M1217.46,619.15V483.69a3.43,3.43,0,0,1,3.43-3.42h79.47a3.43,3.43,0,0,1,3.43,3.42V619.15a3.44,3.44,0,0,1-3.43,3.43h-20.13a3.44,3.44,0,0,1-3.43-3.43v-117a3.43,3.43,0,0,0-3.43-3.43h-25.49a3.44,3.44,0,0,0-3.43,3.43v117a3.43,3.43,0,0,1-3.43,3.43h-20.13A3.44,3.44,0,0,1,1217.46,619.15Z"/><path class="cls-4" d="M1375.88,624.51q-16.45,0-25.79-6.15a32.17,32.17,0,0,1-13-16.78,74.3,74.3,0,0,1-3.7-24.51V526.3q0-14.58,3.7-25.3a30.5,30.5,0,0,1,13-16.52q9.33-5.79,25.79-5.8,15.52,0,24.3,5A28,28,0,0,1,1412.66,498a58.44,58.44,0,0,1,3.7,21.61v8.52a3.44,3.44,0,0,1-3.43,3.43h-19.39a3.43,3.43,0,0,1-3.43-3.43v-8.87a84.15,84.15,0,0,0-.65-10.89,13.19,13.19,0,0,0-3.51-7.82q-2.87-2.9-9.89-2.9c-4.68,0-8.11,1-10.26,3.07a14.57,14.57,0,0,0-4.16,8.26,66.65,66.65,0,0,0-.92,11.69v61.84a52.33,52.33,0,0,0,1.29,12.74,13.06,13.06,0,0,0,4.71,7.55q3.42,2.55,9.34,2.55,6.84,0,9.7-3.07a14.82,14.82,0,0,0,3.61-8.17,80.53,80.53,0,0,0,.74-11.42v-9.4a3.43,3.43,0,0,1,3.43-3.43h19.39a3.44,3.44,0,0,1,3.43,3.43v8a66,66,0,0,1-3.52,22.4A29.37,29.37,0,0,1,1400.55,619Q1391.78,624.5,1375.88,624.51Z"/></svg>