<svg id="Layer_1" data-name="Layer 1" xmlns="http://www.w3.org/2000/svg" xmlns:xlink="http://www.w3.org/1999/xlink" viewBox="0 0 1920 1080"><defs><style>.cls-1{fill:url(#linear-gradient);}.cls-2{font-size:157.21px;font-family:Montserrat-Black, Montserrat;font-weight:800;}.cls-3{letter-spacing:0em;}.cls-4{letter-spacing:0em;}.cls-5{letter-spacing:-0.01em;}.cls-6{letter-spacing:-0.01em;}.cls-7{letter-spacing:-0.01em;}.cls-8{font-size:65.64px;font-family:Montserrat-Medium, Montserrat;font-weight:500;letter-spacing:0.08em;}.cls-9{letter-spacing:0.05em;}</style><linearGradient id="linear-gradient" x1="948.12" y1="1454.53" x2="1576.45" y2="1454.53" gradientTransform="translate(419.3 -1358.69) rotate(34.9)" gradientUnits="userSpaceOnUse"><stop offset="0" stop-color="#29abe2"/><stop offset="0.14" stop-color="#2ca9e0"/><stop offset="0.24" stop-color="#34a1d9"/><stop offset="0.31" stop-color="#4394cd"/><stop offset="0.38" stop-color="#5882bd"/><stop offset="0.44" stop-color="#726aa8"/><stop offset="0.5" stop-color="#944d8d"/><stop offset="0.56" stop-color="#ba2b6f"/><stop offset="0.59" stop-color="#d4145a"/><stop offset="0.63" stop-color="#da316d"/><stop offset="0.73" stop-color="#e7779b"/><stop offset="0.82" stop-color="#f1aec0"/><stop offset="0.9" stop-color="#f9d6da"/><stop offset="0.96" stop-color="#fdeeea"/><stop offset="1" stop-color="#fff7f0"/></linearGradient></defs><title>2. STREMEZ (2)</title><path class="cls-1" d="M625.12,266.59c9.92,6.57,19.54,13.55,29.22,20.41s19.44,13.57,29.44,19.91,20.16,12.43,30.51,18.19,20.89,11.22,31.54,16.51a318.21,318.21,0,0,1-32.6-14.52q-15.9-8.14-31-17.75C672.17,303,662.47,296,653,288.8S634.33,274.11,625.12,266.59Zm-47.6-5h0c2,1.39,4,2.74,5.93,4.11s3.93,2.76,5.89,4.14l1.47,1,1.46,1.06,2.91,2.11c2,1.39,3.87,2.83,5.8,4.26,7.69,5.71,15.27,11.57,22.83,17.48l11.36,8.86q5.69,4.42,11.47,8.77c1.91,1.45,3.87,2.87,5.81,4.3s3.92,2.82,5.88,4.23,4,2.75,5.95,4.12,4,2.69,6,4A392,392,0,0,0,721,358.12a341.09,341.09,0,0,0,54.31,19.73c-17.83-7.24-35.33-15-52.33-23.8a554.86,554.86,0,0,1-49.5-28.82c-2-1.31-4-2.61-6-3.94l-5.91-4c-2-1.37-3.92-2.72-5.87-4.11L649.86,309l-11.65-8.43q-5.84-4.23-11.7-8.42c-7.85-5.57-15.79-11-23.94-16.19q-6.11-3.87-12.37-7.48l-3.14-1.78c-1-.58-2.09-1.2-3.15-1.76-2.13-1.13-4.25-2.27-6.39-3.37Zm-46.26,8.91c1.43.73,2.84,1.52,4.27,2.28L539.8,275l2.13,1.13,1.07.56,1,.6c2.8,1.59,5.61,3.15,8.41,4.72.71.38,1.4.8,2.09,1.21l2.07,1.23,4.15,2.45Q577.3,296.82,593,308l3.92,2.78,3.88,2.85,3.88,2.84,3.86,2.89c1.28,1,2.57,1.92,3.85,2.9l3.84,2.92,7.67,5.86q7.68,5.88,15.45,11.68c2.6,1.92,5.23,3.81,7.85,5.72s5.29,3.74,8,5.59l4,2.71,2,1.35,1,.68,1,.65,4.09,2.63,2.06,1.31,2.07,1.27,4.15,2.54c1.38.84,2.79,1.65,4.18,2.48s2.79,1.66,4.21,2.45l4.24,2.39,2.12,1.18c.71.4,1.43.77,2.14,1.16l4.29,2.29c1.43.78,2.88,1.51,4.33,2.24l4.34,2.19c1.45.73,2.92,1.41,4.38,2.12l4.38,2.1c3,1.33,5.91,2.69,8.87,4a386.68,386.68,0,0,0,73.79,23.7c-3.06-1-6.12-2-9.18-3s-6.09-2.1-9.14-3.15c-1.52-.51-3-1.1-4.54-1.64L769.49,406c-1.51-.54-3-1.13-4.51-1.71l-4.5-1.73q-18-7-35.31-15.32c-2.89-1.38-5.75-2.83-8.63-4.24s-5.7-2.92-8.53-4.41l-4.23-2.28c-1.41-.76-2.83-1.5-4.22-2.3l-4.19-2.34c-.69-.4-1.4-.78-2.09-1.18l-2.07-1.21-4.15-2.42c-1.38-.81-2.74-1.65-4.12-2.47s-2.74-1.65-4.1-2.5l-4.07-2.55-2-1.27-2-1.3-4-2.61-1-.65-1-.67-2-1.34-4-2.68c-2.64-1.81-5.25-3.66-7.88-5.49l-7.8-5.63c-2.6-1.9-5.19-3.79-7.78-5.71l-7.77-5.73c-10.38-7.65-20.87-15.25-31.71-22.35a384.69,384.69,0,0,0-33.49-19.69L558,282l-2.16-1.09c-.72-.37-1.44-.74-2.17-1.07-2.93-1.38-5.86-2.76-8.79-4.11l-1.1-.5-1.12-.48-2.22-1-4.46-1.91c-1.49-.61-3-1.26-4.47-1.86s-3-1.19-4.5-1.78C528.39,269,529.82,269.73,531.26,270.46Zm-5,31.84a447.27,447.27,0,0,1,40.12,22.52l4.85,3.08c1.6,1,3.19,2.12,4.79,3.18l2.39,1.59c.8.53,1.6,1.05,2.38,1.6l4.72,3.28,2.36,1.64,2.33,1.68,4.68,3.36c1.55,1.12,3.09,2.27,4.63,3.41s3.1,2.27,4.63,3.43c12.31,9.21,24.45,18.74,37.12,27.73l4.77,3.36,4.83,3.26,2.42,1.63,2.45,1.59,4.9,3.16c1.64,1,3.3,2,5,3.05s3.3,2,5,3c3.36,2,6.68,4,10.1,5.82l5.1,2.82,5.16,2.72c3.42,1.84,6.93,3.52,10.41,5.24.87.43,1.73.87,2.61,1.28l2.65,1.23,5.28,2.45c.88.42,1.77.79,2.66,1.18l2.68,1.15,5.35,2.31a415.06,415.06,0,0,0,89.09,25.74c-3.71-1.08-7.43-2.11-11.14-3.16-.93-.25-1.85-.54-2.77-.82l-2.77-.84-5.53-1.66c-1.85-.54-3.67-1.17-5.51-1.75l-5.49-1.77-1.37-.44-1.37-.46-2.73-.94-5.45-1.89q-21.75-7.66-42.7-17.2l-5.2-2.45L717,415.2c-.87-.41-1.74-.81-2.59-1.24l-5.15-2.56-2.57-1.28c-.86-.42-1.7-.88-2.54-1.33-3.39-1.78-6.8-3.53-10.14-5.4l-5-2.77-5-2.87c-3.33-1.89-6.59-3.89-9.87-5.86-1.65-1-3.26-2-4.88-3s-3.24-2-4.85-3.07l-4.81-3.13-2.41-1.57-2.37-1.61-4.74-3.23-4.69-3.32-2.34-1.65-2.33-1.69-4.66-3.38-9.27-6.88-9.3-6.89c-3.09-2.31-6.22-4.59-9.35-6.86-1.56-1.14-3.15-2.25-4.73-3.38s-3.15-2.25-4.74-3.35l-4.8-3.3-2.4-1.64L589,332.32l-4.87-3.2c-.81-.54-1.63-1.05-2.46-1.57L579.24,326c-1.65-1-3.29-2.05-5-3.06l-5-2.95a373.76,373.76,0,0,0-41.56-20.9c-1.79-.76-3.56-1.54-5.34-2.28s-3.58-1.47-5.39-2.18c-3.6-1.42-7.21-2.8-10.85-4.11q-10.9-4-22-7.26C498.4,289.14,512.51,295.34,526.22,302.3Zm-54.45,9.8c4.09,1.56,8.18,3.14,12.24,4.79s8.1,3.32,12.11,5.06,8,3.51,12,5.34,7.88,3.77,11.81,5.67l2.94,1.43c1,.49,1.94,1,2.91,1.51l5.81,3,1.45.75c.48.25,1,.5,1.44.77l2.86,1.59,5.71,3.16c1,.51,1.89,1.08,2.83,1.63l2.82,1.66,2.81,1.65c.94.56,1.88,1.1,2.8,1.69l5.54,3.44c.93.58,1.86,1.14,2.77,1.73l2.73,1.79,5.46,3.58,5.4,3.69,2.69,1.84,2.67,1.9,5.32,3.79q10.57,7.73,21,15.69l5.25,4,5.27,4c1.77,1.32,3.52,2.65,5.3,4l5.33,3.93c1.78,1.3,3.6,2.57,5.4,3.85l2.72,1.92,2.75,1.88,2.75,1.87,1.37.94,1.39.91,5.57,3.62c1.85,1.22,3.76,2.35,5.64,3.52l2.83,1.75c.95.57,1.88,1.17,2.84,1.72l5.74,3.36c1,.55,1.91,1.13,2.88,1.66l2.91,1.6,5.83,3.2,5.9,3.07c3.91,2.08,7.93,4,11.92,5.89,2,1,4,1.87,6,2.78l6.06,2.73c2,.88,4.08,1.7,6.13,2.56l3.06,1.27,1.53.64.77.32.78.29A437.39,437.39,0,0,0,824.13,482.9l-3.2-.82-3.2-.81-6.39-1.59-1.6-.4-1.58-.43L805,478l-6.35-1.71c-8.45-2.37-16.85-4.85-25.17-7.56-16.65-5.4-33-11.54-49-18.54a478.74,478.74,0,0,1-46.59-23.61l-2.83-1.63c-.94-.54-1.86-1.12-2.8-1.67l-5.59-3.37c-.94-.55-1.85-1.14-2.77-1.72l-2.76-1.74c-1.84-1.18-3.7-2.31-5.5-3.53-7.32-4.72-14.44-9.68-21.5-14.81s-14.06-10.4-21.11-15.65c-3.54-2.62-7.07-5.24-10.64-7.83s-7.17-5.16-10.78-7.71l-5.48-3.74-2.74-1.87-2.78-1.82-5.56-3.63-5.66-3.5-2.83-1.74c-.94-.58-1.91-1.12-2.86-1.69L558,345.57c-1-.57-1.93-1.08-2.9-1.61l-2.92-1.59-2.92-1.58c-1-.53-1.94-1.08-2.94-1.56-7.88-4.05-15.85-7.91-24-11.4l-6.1-2.6c-1-.43-2-.88-3.05-1.28l-3.08-1.24q-6.17-2.43-12.38-4.69t-12.52-4.3c-4.2-1.35-8.4-2.67-12.63-3.9s-8.48-2.39-12.74-3.5-8.54-2.14-12.83-3.09Q459.46,307.46,471.77,312.1Zm-30,22.57q13.85,4.5,27.45,9.6c4.53,1.72,9,3.46,13.51,5.31s8.92,3.71,13.34,5.66c1.11.48,2.2,1,3.3,1.48l1.65.75.83.37.82.39,6.54,3.08c4.4,2,8.64,4.28,13,6.42,2.16,1.06,4.26,2.25,6.38,3.39s4.23,2.28,6.33,3.45l6.25,3.61c1,.6,2.09,1.19,3.13,1.8l3.07,1.89c2.05,1.26,4.11,2.5,6.15,3.78l6.06,3.91c2,1.28,4,2.65,6,4l3,2,1.49,1,1.48,1c15.83,11,31,23,46.74,34.64l2.95,2.17,3,2.15c2,1.42,4,2.86,6,4.24l3,2.1c1,.7,2,1.4,3.06,2.06l6.16,4,1.55,1c.51.33,1,.65,1.56,1L648.7,453l3.13,1.94,1.57,1c.52.32,1.06.63,1.59.94,4.25,2.47,8.45,5,12.8,7.32l3.24,1.76,1.61.89c.54.29,1.08.59,1.63.86l6.56,3.36,3.29,1.68c1.1.54,2.21,1.06,3.32,1.58l6.67,3.15c1.1.54,2.23,1,3.35,1.52l3.38,1.48,3.37,1.47,1.69.74c.56.25,1.12.5,1.69.72l6.84,2.74c2.28.9,4.54,1.85,6.86,2.66a442.65,442.65,0,0,0,56.24,16.89l7.16,1.6c2.37.56,4.78,1,7.17,1.46l7.2,1.37,3.59.68,3.62.57,7.23,1.13,3.61.55c.61.09,1.21.2,1.81.27l1.82.23c4.84.59,9.67,1.18,14.51,1.72h0c-4.75-1.11-9.5-2.17-14.24-3.23l-1.78-.39c-.59-.13-1.18-.29-1.77-.43l-3.54-.88-7.08-1.73-3.53-.86-3.52-.95-7-1.9c-4.7-1.19-9.32-2.64-14-4a541.9,541.9,0,0,1-54.58-19.47c-2.24-.88-4.43-1.89-6.63-2.86L711,475.56c-2.19-1-4.36-2.05-6.53-3.08l-3.27-1.54c-1.09-.52-2.18-1-3.25-1.58l-6.43-3.27-3.22-1.63-3.18-1.71-6.35-3.42c-.54-.28-1.06-.58-1.58-.88l-1.57-.89-3.13-1.8c-4.19-2.35-8.29-4.87-12.42-7.34l-1.54-.94-1.52-1-3-1.94-3-1.93c-.51-.33-1-.64-1.52-1l-1.5-1-6-4c-1-.66-2-1.35-3-2l-3-2.06c-2-1.35-3.92-2.77-5.88-4.18l-2.93-2.12-2.91-2.15c-7.8-5.71-15.51-11.62-23.37-17.42-2-1.46-3.94-2.89-5.91-4.33s-3.95-2.88-6-4.28-4-2.84-6-4.24l-6.09-4.13-1.52-1-1.55-1-3.09-2c-2.07-1.33-4.12-2.68-6.22-3.95l-6.29-3.85c-2.12-1.25-4.26-2.46-6.39-3.69l-3.2-1.83c-1.07-.6-2.16-1.17-3.24-1.76l-6.5-3.48c-2.19-1.12-4.4-2.2-6.6-3.3s-4.38-2.21-6.63-3.21l-6.7-3.06-1.67-.76-.84-.38-.85-.36-3.39-1.42-6.79-2.84c-1.12-.48-2.27-.9-3.41-1.36l-3.42-1.33q-13.74-5.25-27.78-9.53T442.49,332q-14.25-3.33-28.67-5.74C423.18,328.91,432.5,331.69,441.74,334.67Zm-25.36,25c10.07,2.86,20.07,5.9,30,9.24,2.46.86,4.94,1.67,7.4,2.55l3.68,1.31,1.84.66,1.83.68c2.44.92,4.89,1.8,7.31,2.75l3.64,1.41,3.62,1.45,3.62,1.47,3.59,1.51c2.41,1,4.79,2,7.17,3.08l1.79.78,1.76.82,3.54,1.63,3.53,1.63,1.77.81c.59.27,1.19.53,1.76.83l7,3.46,3.48,1.72,3.43,1.84,6.86,3.64,6.76,3.83c1.12.65,2.25,1.27,3.37,1.93l3.32,2,3.32,2c1.11.67,2.23,1.32,3.31,2l6.55,4.17c1.1.68,2.17,1.42,3.24,2.14l3.23,2.16q12.87,8.71,25.35,18.12c8.35,6.25,16.64,12.64,25.11,18.95l3.17,2.36c1.06.78,2.15,1.55,3.22,2.33,2.15,1.55,4.28,3.12,6.48,4.62l3.28,2.28,1.64,1.13,1.66,1.09,6.65,4.38c1.1.74,2.24,1.42,3.36,2.13l3.38,2.1,3.38,2.11.85.52.86.5,1.72,1,6.88,4,.86.5.87.48,1.75,1,3.5,1.9c4.63,2.59,9.4,4.93,14.13,7.34l1.78.9c.59.3,1.19.57,1.79.86l3.61,1.68c2.41,1.12,4.8,2.25,7.22,3.35l7.31,3.14c2.44,1,4.86,2.12,7.34,3.05l7.41,2.89,1.85.72c.62.23,1.24.48,1.86.69l3.75,1.33a458.46,458.46,0,0,0,61,17.11l7.75,1.58c.64.12,1.28.27,1.93.38l2,.34,3.9.67,7.79,1.32,1.94.33,1,.16,1,.13,3.92.53,7.82,1.06c2.61.34,5.21.71,7.83.95,5.23.51,10.46,1,15.69,1.49-5.14-1.11-10.28-2.16-15.41-3.22-1.28-.27-2.57-.49-3.85-.81l-3.83-.88L812.79,540l-3.83-.87-1-.22-1-.24-1.91-.48-7.6-1.93-3.8-.95-1.9-.48c-.64-.15-1.26-.34-1.89-.51l-7.55-2.12a559.49,559.49,0,0,1-59.13-20.07l-3.61-1.44c-.61-.23-1.2-.5-1.8-.75l-1.78-.78-7.14-3.1c-1.19-.53-2.39-1-3.56-1.57l-3.53-1.65-7.05-3.28c-2.33-1.14-4.63-2.32-6.95-3.48l-3.48-1.74c-.57-.29-1.16-.57-1.73-.88l-1.71-.91c-4.57-2.46-9.17-4.83-13.63-7.46l-3.38-1.93-1.68-1-.85-.48-.83-.5-6.65-4-1.66-1-.83-.5-.82-.53-3.28-2.08L644.06,471c-1.09-.7-2.2-1.38-3.26-2.11l-6.46-4.33-1.61-1.08c-.54-.36-1.06-.74-1.59-1.11L628,460.17c-2.12-1.47-4.21-3-6.31-4.53-1-.77-2.1-1.52-3.15-2.3L615.37,451l-3.14-2.32-3.14-2.36-6.28-4.73q-6.28-4.72-12.66-9.42c-8.5-6.25-17.19-12.33-26.11-18.08l-3.36-2.15c-1.11-.71-2.22-1.44-3.37-2.12l-6.81-4.13c-1.13-.7-2.29-1.35-3.44-2l-3.47-2-3.47-2c-1.16-.65-2.34-1.25-3.51-1.88l-7.05-3.72-7.15-3.51-3.58-1.73-3.63-1.64L507.94,384c-2.44-1-4.9-2-7.35-3l-3.68-1.49-1.84-.75-1.86-.71c-2.47-.94-4.94-1.9-7.43-2.79l-3.73-1.34c-1.25-.44-2.51-.86-3.76-1.29l-3.75-1.27-3.78-1.22c-2.5-.83-5-1.6-7.56-2.36l-1.9-.57-1.9-.55-3.81-1.09c-1.27-.37-2.54-.7-3.82-1.05l-3.82-1q-15.31-4-30.84-7c-10.34-2-20.73-3.61-31.17-4.86C396.15,354.18,406.3,356.8,416.38,359.64Zm-20.72,26.6c10.76,2.69,21.45,5.6,32,8.83q7.94,2.4,15.78,5.05l2,.66,1.95.68,3.91,1.36c1.3.44,2.59.93,3.89,1.4l3.88,1.42c10.31,3.87,20.53,8,30.5,12.62l3.76,1.68c.63.27,1.25.58,1.87.88l1.85.9,7.4,3.59c.62.29,1.23.62,1.83.94l1.83.95,3.65,1.89,3.64,1.9c1.21.65,2.4,1.33,3.6,2l3.58,2,1.8,1c.59.34,1.2.66,1.78,1l7.06,4.2,1.77,1,1.73,1.1,3.48,2.19,3.48,2.19L547.1,450l3.43,2.27,1.71,1.14,1.69,1.17,6.77,4.69,6.7,4.82c2.22,1.61,4.43,3.27,6.65,4.9,8.85,6.59,17.61,13.38,26.57,20.08l3.36,2.5,3.4,2.49c1.14.82,2.26,1.66,3.41,2.47l3.46,2.43c1.16.81,2.3,1.63,3.47,2.42l3.52,2.34,3.51,2.33c1.18.78,2.33,1.58,3.54,2.31l7.16,4.48,1.79,1.12c.59.37,1.21.71,1.81,1.07l3.64,2.14,3.65,2.13,1.82,1.07c.61.35,1.23.68,1.85,1l7.42,4c2.45,1.38,5,2.61,7.49,3.89l3.77,1.9,1.89.94c.63.31,1.25.65,1.89.93l7.66,3.56,3.83,1.76c.63.3,1.29.57,1.93.84l2,.82,7.76,3.29,1.94.82c.65.27,1.31.51,2,.77l3.93,1.51,7.87,3c2.65.95,5.31,1.84,8,2.76a474.85,474.85,0,0,0,64.93,17.11l8.23,1.57,8.27,1.31,8.28,1.28,2.06.31,2.08.26,4.15.5,8.31,1,4.14.48c.69.09,1.39.14,2.09.2l2.08.18c5.55.46,11.1.93,16.65,1.33-5.47-1.09-10.93-2.12-16.39-3.14-1.36-.27-2.73-.49-4.09-.78L826,573l-8.14-1.72-4.07-.85-2-.43-2-.47-8.09-1.92-8.08-1.9-8-2.13a575.23,575.23,0,0,1-63-20.25,470.92,470.92,0,0,1-59.61-27.94l-7.15-4.06c-.6-.34-1.2-.67-1.79-1l-1.75-1.07-3.52-2.13L645.2,505c-.58-.36-1.18-.7-1.76-1.07l-1.73-1.11-6.92-4.44c-1.16-.73-2.29-1.51-3.43-2.27l-3.41-2.3-3.41-2.31c-1.14-.76-2.24-1.57-3.36-2.36l-3.35-2.36-3.33-2.43-3.32-2.44-3.32-2.48c-2.21-1.65-4.43-3.3-6.64-5l-6.65-5c-2.23-1.67-4.44-3.35-6.69-5l-3.37-2.5-1.68-1.25-1.7-1.23c-2.27-1.64-4.53-3.29-6.82-4.91l-6.89-4.83-7-4.71-1.75-1.17-1.78-1.13-3.56-2.27-3.57-2.26-3.62-2.18-3.62-2.17-1.82-1.08-1.84-1-7.37-4.13c-.61-.35-1.24-.67-1.87-1l-1.87-1L524,423.6c-1.25-.65-2.49-1.31-3.75-1.94l-3.8-1.84L512.63,418l-1.9-.92c-.63-.3-1.27-.61-1.91-.89l-7.73-3.39-1.93-.85c-.65-.28-1.29-.57-1.94-.83l-3.92-1.57c-2.6-1.05-5.21-2.1-7.82-3.13l-7.9-2.91c-2.65-.92-5.29-1.86-7.95-2.77l-4-1.3c-1.34-.43-2.66-.88-4-1.28l-4-1.23c-1.34-.41-2.67-.83-4-1.21l-4-1.16-2-.57-2-.54-4.06-1.08-2-.53-2-.51c-2.72-.66-5.42-1.37-8.16-2q-16.33-3.77-32.88-6.4c-11-1.75-22.07-3.15-33.16-4.13C374.06,381.13,384.9,383.56,395.66,386.24Zm-16.21,27.82c11.32,2.55,22.56,5.34,33.69,8.47l2.08.59c.7.2,1.4.38,2.09.59l4.15,1.23,2.08.61q1,.3,2.07.63l4.13,1.3c2.76.85,5.49,1.77,8.23,2.67s5.46,1.86,8.18,2.8,5.41,2,8.12,2.95l2,.74c.68.25,1.35.52,2,.78l4,1.56q8,3.15,15.91,6.66c10.57,4.51,20.83,9.65,30.93,15.06l7.52,4.14,7.41,4.35,1.85,1.08c.62.37,1.22.76,1.83,1.13l3.64,2.28,3.65,2.27,3.59,2.36c9.6,6.26,19,12.9,28.2,19.81s18.39,14,27.75,21a424.77,424.77,0,0,0,59.69,37.68l3.93,2c1.3.68,2.64,1.31,3.95,2s2.64,1.3,4,1.93l4,1.88,2,.94,2,.91,4,1.81c1.34.6,2.7,1.17,4.05,1.75s2.7,1.17,4.06,1.73c5.44,2.24,10.9,4.42,16.42,6.44l4.14,1.51c1.37.51,2.77,1,4.15,1.46l4.17,1.44,4.18,1.37a498.42,498.42,0,0,0,68.16,16.86l4.32.74L794,602l2.16.33,4.33.67c1.44.22,2.88.46,4.33.65l8.67,1.17c2.9.37,5.8.69,8.69,1q17.39,1.92,34.83,2.8c-11.48-2-22.92-4-34.3-6.22s-22.7-4.74-33.94-7.5a604.74,604.74,0,0,1-66.21-20.1l-4-1.5-4-1.57c-1.34-.52-2.69-1-4-1.57l-4-1.63c-2.67-1.07-5.3-2.22-8-3.33-1.33-.55-2.63-1.14-3.95-1.72l-3.94-1.74q-15.69-7.08-30.82-15.29A465.13,465.13,0,0,1,602,509.23L595.11,504l-7-5.26-7-5.26c-2.35-1.74-4.68-3.49-7-5.22-9.44-6.92-19.14-13.61-29.12-19.86l-3.74-2.35-3.8-2.27-3.81-2.25c-.63-.37-1.26-.76-1.9-1.12l-1.93-1.08-7.74-4.28L514.22,451c-2.6-1.39-5.28-2.61-7.94-3.88l-4-1.88-2-.95-2-.87-8.11-3.5c-.68-.28-1.35-.59-2-.86l-2.05-.81-4.1-1.61c-5.46-2.19-11-4.18-16.54-6.09s-11.14-3.7-16.77-5.34c-2.82-.81-5.63-1.66-8.46-2.4s-5.65-1.55-8.5-2.23l-4.27-1.06c-.7-.18-1.42-.34-2.13-.5l-2.14-.49-4.28-1c-1.42-.32-2.86-.61-4.29-.91q-17.16-3.6-34.52-6c-11.55-1.58-23.15-2.79-34.76-3.56C356.74,409.26,368.14,411.52,379.45,414.06Zm-12,28.76c11.75,2.46,23.42,5.18,35,8.28q8.67,2.32,17.24,4.92c.72.21,1.43.42,2.14.65l2.14.67,4.26,1.35c1.43.43,2.84.92,4.25,1.39l4.24,1.43c1.42.46,2.81,1,4.22,1.48l4.2,1.5,1.05.37,1.05.4,2.09.78,4.17,1.58,1.05.39,1,.42,2.07.83,4.14,1.66,1,.42,1,.44,2.05.89,4.09,1.75,4.1,1.75c.69.29,1.36.6,2,.92l2,.94,8.07,3.76,7.94,4,2,1,1,.5,1,.53,3.9,2.12,3.91,2.12c.65.35,1.3.69,1.94,1.06l1.92,1.12,7.68,4.47,7.56,4.67c1.27.76,2.5,1.58,3.75,2.39l3.72,2.43c9.9,6.53,19.55,13.45,29.08,20.63s19,14.59,28.75,21.85A418.65,418.65,0,0,0,652.58,589a440,440,0,0,0,67.8,27c2.91.87,5.81,1.76,8.73,2.59l8.78,2.42,8.81,2.28,8.85,2.1,8.88,1.94c1.48.33,3,.61,4.45.91l4.45.89,2.23.43,2.24.4,4.46.8c3,.56,6,1,9,1.51,11.95,1.88,23.93,3.45,35.95,4.6s24.05,2,36.09,2.4c-11.91-1.88-23.78-3.82-35.59-6l-8.85-1.68c-2.94-.56-5.88-1.18-8.82-1.77s-5.87-1.24-8.8-1.87l-4.39-.94-4.37-1c-2.92-.68-5.84-1.31-8.74-2l-4.36-1.07-2.18-.53c-.73-.18-1.45-.38-2.17-.57-2.89-.77-5.79-1.49-8.68-2.27l-8.63-2.39-8.59-2.52L740.52,612l-8.5-2.78-8.45-2.9a495.08,495.08,0,0,1-65.38-28.28l-3.92-2.1c-1.3-.7-2.62-1.38-3.91-2.11-2.59-1.44-5.19-2.86-7.74-4.36-5.15-2.94-10.22-6-15.24-9.16-2.5-1.6-5-3.17-7.48-4.81s-4.93-3.29-7.39-4.95l-3.66-2.52L607,546.79l-1.8-1.3-3.6-2.59c-1.21-.85-2.39-1.77-3.59-2.64l-3.58-2.66-3.58-2.71-7.17-5.44L576.49,524c-2.4-1.83-4.84-3.63-7.27-5.43-9.76-7.19-19.75-14.18-30.07-20.69l-3.88-2.43c-1.29-.81-2.58-1.63-3.9-2.39l-7.9-4.63c-2.67-1.48-5.36-2.94-8-4.41l-2-1.09c-.66-.37-1.35-.7-2-1.05l-4.09-2.07-4.08-2.06c-.35-.17-.68-.35-1-.51l-1-.49-2.07-1c-2.77-1.28-5.53-2.59-8.31-3.85l-8.42-3.56-2.11-.89c-.7-.3-1.4-.6-2.12-.86L473.85,465l-4.26-1.63-2.14-.81-1.06-.4-1.08-.38-4.31-1.5-2.15-.75-1.08-.38-1.08-.35-4.34-1.41-2.17-.71-1.08-.35L448,456l-4.37-1.31c-1.45-.43-2.9-.89-4.37-1.28l-4.39-1.22c-1.46-.4-2.92-.82-4.4-1.18l-4.4-1.13c-1.47-.38-2.94-.75-4.42-1.08-5.9-1.4-11.82-2.71-17.76-3.88q-17.83-3.5-35.83-5.65t-36-3.07C343.91,438.22,355.74,440.37,367.49,442.82Zm-8,29c12.11,2.32,24.13,4.93,36,8,3,.8,5.95,1.55,8.91,2.36l4.43,1.25c1.47.42,2.95.82,4.42,1.27l4.4,1.33,2.2.66c.74.22,1.46.46,2.19.69l4.38,1.4,2.19.7,2.17.75c2.9,1,5.8,1.95,8.67,3s5.76,2.06,8.61,3.19l4.27,1.65,1.07.42,1.06.44,2.12.88,8.46,3.51c.71.29,1.4.61,2.1.92l2.08,1,4.17,1.9,4.16,1.89,4.1,2,4.11,2c1.36.68,2.74,1.32,4.08,2.06l8.07,4.3c10.66,5.91,21.09,12.22,31.22,19L532.9,541c1.26.86,2.54,1.7,3.78,2.59,2.49,1.77,5,3.52,7.47,5.3l7.4,5.44,7.34,5.55c9.78,7.43,19.45,15.11,29.59,22.47s20.59,14.18,31.31,20.61l4.05,2.36,2,1.18,2,1.15L632,610c1.37.76,2.75,1.49,4.12,2.23,5.5,3,11.08,5.79,16.71,8.51,11.27,5.37,22.75,10.31,34.42,14.71,1.46.54,2.92,1.11,4.38,1.64l4.4,1.58,2.2.79c.73.27,1.47.53,2.21.77l4.43,1.49c2.94,1,5.92,1.93,8.89,2.87s6,1.81,8.94,2.7,6,1.72,9,2.53c1.5.4,3,.83,4.51,1.21l4.52,1.15,4.52,1.14,4.54,1.07,4.53,1.06c1.52.34,3,.66,4.56,1q18.21,3.95,36.62,6.71t36.89,4.46q18.5,1.66,37,2.34c-12.25-1.67-24.47-3.4-36.65-5.37s-24.28-4.23-36.33-6.73l-9-1.91-9-2.06c-1.5-.33-3-.71-4.48-1.07l-4.47-1.09c-3-.7-6-1.51-8.93-2.28-1.48-.39-3-.77-4.45-1.17L751.65,647l-4.44-1.22-4.41-1.3-4.41-1.3c-1.47-.43-2.92-.91-4.39-1.36-2.92-.93-5.85-1.81-8.75-2.79s-5.83-1.9-8.71-2.93-5.78-2-8.64-3.08l-4.31-1.59c-.72-.25-1.43-.53-2.14-.81l-2.14-.82L695,628.15c-1.42-.56-2.83-1.15-4.25-1.72-11.31-4.63-22.47-9.6-33.39-15l-4.07-2.09c-1.36-.69-2.72-1.37-4.07-2.09-2.69-1.43-5.39-2.84-8-4.33-1.34-.74-2.68-1.47-4-2.22l-4-2.28-2-1.14-2-1.17-3.93-2.34-3.89-2.4-2-1.2-1.92-1.23-3.86-2.46-3.81-2.51c-5.08-3.38-10.12-6.82-15-10.42-1.24-.9-2.47-1.77-3.7-2.68l-3.68-2.76c-2.45-1.81-4.89-3.71-7.34-5.56l-7.37-5.61-7.41-5.6c-9.94-7.43-20.07-14.73-30.58-21.49s-21.29-13.11-32.39-18.87-22.55-10.83-34.12-15.5l-8.76-3.29-2.19-.82-1.1-.41-1.11-.38L450.73,489c-2.93-1-5.91-2-8.88-2.91l-2.22-.71c-.74-.24-1.49-.45-2.24-.67l-4.48-1.31q-9-2.6-18-4.79c-1.51-.39-3-.71-4.54-1.06l-4.54-1c-1.52-.35-3-.64-4.56-1l-4.56-.94q-18.29-3.6-36.75-5.76t-37-3.08C335.17,467.58,347.35,469.56,359.45,471.86Zm-5.07,29.59c1.54.27,3.08.59,4.62.88l4.62.88,4.6,1c1.54.32,3.07.62,4.6,1,3.06.69,6.12,1.33,9.17,2.07l4.56,1.08c1.53.37,3,.77,4.56,1.15s3,.76,4.54,1.16l4.53,1.22c3,.79,6,1.7,9,2.56l2.25.66,2.24.7,4.47,1.38c1.5.44,3,1,4.46,1.44l4.44,1.47c2.95,1,5.88,2.08,8.82,3.11l4.38,1.64,2.19.82c.73.28,1.46.54,2.18.84l8.66,3.52,2.16.88,1.08.44,1.07.47,4.26,1.9,4.27,1.89,2.13,1c.7.32,1.4.67,2.1,1l8.39,4.07,1,.52,1,.54,2.06,1.08,4.13,2.17,2.06,1.08c.69.35,1.38.71,2.05,1.1l4.06,2.3q16.23,9.17,31.61,19.76c2.56,1.77,5.08,3.6,7.63,5.38l1,.67.94.68,1.89,1.38L542,581c1.27.91,2.51,1.87,3.76,2.81l3.74,2.81c2.49,1.89,5,3.82,7.44,5.72l7.45,5.76c2.51,1.92,5,3.85,7.51,5.76s5,3.84,7.61,5.72c1.28.94,2.56,1.89,3.85,2.82l3.89,2.75c5.22,3.63,10.51,7.18,15.89,10.57,2.67,1.72,5.39,3.36,8.1,5,.68.42,1.36.82,2,1.22l2.06,1.21,2,1.21c.69.41,1.37.81,2.07,1.2,11.06,6.27,22.37,12.11,33.93,17.4s23.33,10.07,35.28,14.34c3,1.05,6,2.15,9,3.12s6,2.05,9,3l4.54,1.41,2.27.7,2.28.66,4.57,1.32,2.28.66,2.29.63A590,590,0,0,0,799.17,694c12.5,1.76,25,3.11,37.59,4.2l9.42.73c1.57.13,3.15.21,4.72.31l4.71.28,4.72.28c1.57.08,3.14.14,4.71.2l9.44.36-9.37-1.16-4.68-.57-4.67-.63-4.68-.61c-1.55-.21-3.11-.4-4.67-.64l-9.32-1.35-2.33-.33-2.33-.38-4.65-.73-4.65-.73c-1.54-.25-3.09-.53-4.63-.79-3.09-.55-6.19-1-9.27-1.61L800,689.07a689.41,689.41,0,0,1-72.85-17.92l-2.24-.68-2.23-.71-4.46-1.43-2.22-.72c-.75-.24-1.48-.5-2.22-.75l-4.43-1.51c-3-1-5.88-2.07-8.82-3.11s-5.84-2.18-8.75-3.27c-11.63-4.49-23.11-9.32-34.34-14.67A444.49,444.49,0,0,1,593,606.87l-3.81-2.68-3.76-2.74c-2.52-1.81-5-3.71-7.5-5.59l-15-11.44c-10.05-7.62-20.25-15.16-30.82-22.21s-21.47-13.65-32.7-19.64l-4.2-2.25c-.7-.39-1.41-.74-2.12-1.09L491,538.17l-4.27-2.12-2.14-1-1.07-.53-1.09-.5-8.69-3.92c-.72-.32-1.44-.66-2.17-1l-2.21-.91-4.41-1.81a379,379,0,0,0-35.89-12.63l-4.57-1.31c-1.52-.43-3-.89-4.57-1.28l-4.59-1.22-2.3-.6-2.31-.56c-3.07-.74-6.14-1.51-9.24-2.17l-4.63-1c-1.54-.33-3.09-.63-4.64-.94a497.81,497.81,0,0,0-75.07-9C329.61,497.31,342,499.2,354.38,501.45Zm-20.32,26.88,2.34.35,2.33.37,4.66.76,4.65.8c1.55.27,3.11.52,4.65.82l4.64.87c1.54.28,3.08.61,4.63.91l4.62.93,4.6,1,2.31.5,2.29.53,4.59,1.05c1.53.36,3.05.75,4.57,1.13l2.29.56c.76.19,1.52.38,2.28.59q18.23,4.71,36,10.9t34.79,14q17,7.83,33.2,17.28c1.34.79,2.7,1.57,4,2.38l4,2.43,4,2.49c1.33.82,2.63,1.68,4,2.52q7.86,5.09,15.5,10.51t15.14,11.1c5,3.78,10,7.63,14.92,11.51s9.95,7.75,15,11.58c2.53,1.91,5.13,3.79,7.72,5.63s5.22,3.66,7.83,5.47c1.32.9,2.65,1.77,4,2.65l2,1.32c.66.44,1.34.86,2,1.29l4,2.58,4.06,2.51c2.7,1.69,5.46,3.28,8.2,4.91,1.37.82,2.76,1.59,4.14,2.38l2.08,1.18c.69.39,1.38.79,2.08,1.16q16.77,9.19,34.24,16.92c11.64,5.12,23.49,9.79,35.5,13.92,3,1,6,2,9,3,.76.26,1.51.5,2.27.73l2.27.71L706,704c1.51.49,3,.91,4.56,1.35l4.57,1.33,2.29.66,2.3.62,4.59,1.24c3.05.85,6.14,1.6,9.21,2.37,1.54.37,3.08.77,4.62,1.13l4.63,1.07,4.64,1.06c.77.18,1.54.35,2.32.51l2.32.49,4.65,1c1.55.33,3.1.66,4.66.94,12.42,2.48,24.92,4.47,37.45,6.22l4.7.62,2.35.32,1.17.15,1.18.14,9.42,1.09,2.35.27,2.36.23,4.72.46,4.71.46c1.57.16,3.15.26,4.72.39l9.45.75,9.45.59,4.72.27,4.73.21,4.73.2,4.73.18-4.7-.55-4.7-.53-4.7-.53-4.69-.6-9.38-1.17-9.36-1.29c-12.47-1.79-24.91-3.69-37.27-6-1.55-.28-3.09-.54-4.64-.84l-4.63-.9-4.62-.9-2.31-.46-2.31-.49-9.22-1.94L762.58,712c-1.53-.34-3.05-.72-4.58-1.09l-4.57-1.12-2.29-.56q-1.14-.27-2.28-.57l-4.55-1.19-4.55-1.19c-1.51-.41-3-.84-4.53-1.27-3-.85-6-1.65-9-2.57l-4.5-1.34-2.25-.67-2.24-.71-4.48-1.42c-1.49-.48-3-.93-4.47-1.45-3-1-5.94-2-8.89-3s-5.9-2.08-8.84-3.16c-11.74-4.33-23.33-9-34.69-14.23a440.81,440.81,0,0,1-65.24-36.56c-2.57-1.77-5.16-3.51-7.69-5.34s-5.07-3.61-7.57-5.49c-5-3.72-10-7.59-15-11.43-10-7.68-20.12-15.37-30.61-22.57A378.56,378.56,0,0,0,463.1,558c-.72-.32-1.46-.63-2.19-.93l-2.21-.92c-1.47-.61-2.94-1.22-4.42-1.79l-4.44-1.73L445.37,551l-2.24-.83-2.25-.79-4.5-1.57-4.52-1.49c-1.51-.48-3-1-4.54-1.45-12.12-3.78-24.42-7-36.81-9.61a478.27,478.27,0,0,0-75.18-9.52C321.58,526.56,327.84,527.34,334.06,528.33Zm2.36,30.44c1.52.23,3,.5,4.56.74s3,.5,4.55.78l4.55.81,4.53.86,2.27.43,2.26.47,4.51.92,4.51,1,2.25.49,2.24.53c6,1.36,11.94,2.9,17.87,4.48l4.43,1.25,2.22.63,2.2.65,4.41,1.32c1.46.45,2.92.93,4.38,1.39,2.93.91,5.82,1.91,8.73,2.89l1.09.36,1.08.39,2.16.77c1.44.52,2.89,1,4.32,1.56,2.87,1.09,5.74,2.13,8.58,3.28,1.42.57,2.85,1.12,4.26,1.7l4.24,1.76c1.42.58,2.81,1.2,4.21,1.82s2.81,1.21,4.2,1.85l4.16,1.92c.7.31,1.39.64,2.08,1l2.06,1c2.77,1.3,5.49,2.7,8.22,4.06s5.43,2.81,8.1,4.28,5.35,3,8,4.45l4,2.31c1.32.77,2.62,1.57,3.94,2.35Q499.39,618,507,623t15.05,10.49q7.42,5.4,14.72,11c4.87,3.73,9.7,7.53,14.55,11.34s9.76,7.6,14.78,11.3l3.79,2.74,1.89,1.36,1.91,1.34,3.83,2.67,3.87,2.61c.65.43,1.29.87,1.94,1.29l2,1.27,3.92,2.53,4,2.47,2,1.24,2,1.2,4,2.4c1.34.79,2.69,1.55,4,2.33s2.69,1.57,4.06,2.31l4.08,2.25q16.41,8.92,33.52,16.37t34.73,13.52c5.86,2,11.77,3.94,17.69,5.76,3,.88,6,1.78,8.92,2.64l9,2.49,9,2.32c1.49.4,3,.75,4.51,1.1l4.52,1.08c3,.73,6,1.38,9.06,2l4.54,1c1.51.32,3,.61,4.55.91l4.55.91c1.52.3,3,.61,4.56.87l9.13,1.64c3,.52,6.11,1,9.16,1.49,1.53.24,3.05.51,4.58.73l4.59.66,4.59.65,2.3.32,2.3.29,9.19,1.15c3.07.36,6.15.67,9.21,1l4.61.49,4.61.41,9.23.82,9.23.66,4.62.31,4.62.25c3.08.17,6.16.32,9.24.47-24.5-2.87-48.92-6.19-73.1-10.75l-4.54-.83c-1.51-.28-3-.6-4.52-.89-3-.62-6-1.2-9-1.83l-9-2c-1.5-.31-3-.67-4.49-1l-4.49-1c-1.49-.35-3-.68-4.48-1.06l-4.47-1.11c-3-.74-6-1.46-8.92-2.28l-4.44-1.18c-1.49-.4-3-.79-4.44-1.22l-8.85-2.52-8.8-2.67c-2.92-.91-5.83-1.87-8.75-2.81-5.82-1.92-11.62-3.9-17.36-6-11.5-4.22-22.86-8.78-34-13.81-.7-.31-1.4-.61-2.09-.94l-2.08-1-4.16-1.93-1-.48-1-.5-2.06-1-4.12-2-4.08-2.08c-1.36-.7-2.73-1.38-4.08-2.1l-4-2.16-2-1.08-2-1.11-4-2.22c-1.34-.74-2.65-1.52-4-2.28s-2.65-1.52-4-2.3L601.33,681l-2-1.18-1.94-1.22-3.88-2.43-3.84-2.49-1.92-1.25-1.9-1.27-3.8-2.56-3.77-2.6-1.88-1.31-1.86-1.33-3.72-2.68c-4.91-3.59-9.76-7.35-14.63-11.11-9.75-7.53-19.56-15.13-29.72-22.28A383.28,383.28,0,0,0,462,590l-2.12-1c-.71-.32-1.42-.64-2.13-.94l-4.29-1.83c-1.43-.61-2.88-1.18-4.32-1.77s-2.87-1.17-4.33-1.72l-4.35-1.67c-1.45-.55-2.91-1.07-4.37-1.6l-2.19-.8c-.73-.27-1.47-.5-2.2-.76l-4.41-1.5c-11.77-3.92-23.74-7.23-35.81-10l-4.53-1-2.27-.5-2.28-.47-4.55-.92-4.56-.85-2.28-.42-2.29-.39-4.57-.77-4.59-.7-2.29-.35-2.29-.32-4.6-.62-4.6-.56c-1.53-.2-3.06-.36-4.6-.52s-3.07-.35-4.61-.49c-3.07-.28-6.14-.57-9.22-.8s-6.15-.45-9.23-.65C324.23,556.94,330.34,557.78,336.42,558.77Zm24.44,34.53q8.55,1.85,17,4c1.4.37,2.82.72,4.22,1.1l4.21,1.14,4.2,1.2,2.09.6,2.09.63c11.15,3.32,22.12,7.16,32.92,11.41s21.37,9.05,31.72,14.28c5.17,2.61,10.26,5.37,15.31,8.21s10,5.83,14.93,8.89q14.7,9.27,28.7,19.63,7,5.18,13.88,10.53c4.6,3.57,9.17,7.19,13.76,10.81q3.45,2.71,6.94,5.4c2.34,1.78,4.7,3.57,7.08,5.29,4.74,3.5,9.59,6.85,14.47,10.15q14.72,9.76,30.2,18.33t31.63,15.67q16.13,7.18,32.73,13.14c2.77,1,5.52,2,8.32,2.91l4.17,1.4,2.09.7,2.1.67,4.2,1.31c1.4.44,2.8.9,4.21,1.3l8.44,2.49,8.49,2.33c1.41.4,2.84.74,4.26,1.11l4.26,1.09c2.84.75,5.7,1.39,8.55,2.08l4.27,1,4.3.94,4.3.93,2.14.47,2.16.43,8.61,1.72c2.88.54,5.77,1,8.65,1.57s5.77,1,8.66,1.48l4.33.7,2.17.35,2.17.32,8.68,1.26c2.9.4,5.81.75,8.71,1.13l4.35.55,4.36.49,8.72.95,8.73.81,4.37.39,4.37.33c2.91.23,5.83.44,8.74.64-23.16-3.13-46.23-6.7-69.06-11.41l-4.29-.86c-1.43-.28-2.85-.61-4.27-.92-2.84-.62-5.69-1.23-8.53-1.87l-8.51-2-2.12-.5-2.12-.53-4.23-1.06-4.23-1.07-4.22-1.12c-2.81-.75-5.63-1.47-8.42-2.29l-4.2-1.19c-1.39-.4-2.8-.77-4.18-1.2l-8.35-2.51-8.31-2.65c-1.39-.43-2.76-.91-4.13-1.37l-4.13-1.4-2.06-.69-2.05-.73-4.11-1.46c-2.74-.95-5.45-2-8.17-3-10.85-4.12-21.57-8.55-32.1-13.4s-20.89-10-31-15.68S588,707,578.39,700.6c-4.8-3.24-9.58-6.51-14.25-9.94s-9.25-6.93-13.86-10.51c-9.22-7.15-18.46-14.39-28-21.25s-19.33-13.43-29.4-19.51q-7.58-4.54-15.33-8.77t-15.74-8c-1.32-.65-2.66-1.25-4-1.88s-2.67-1.24-4-1.83l-4-1.78c-1.35-.59-2.71-1.15-4.07-1.72-2.7-1.16-5.44-2.22-8.17-3.32-1.36-.54-2.75-1-4.12-1.56l-2.06-.78-1-.38-1-.37c-2.77-1-5.53-2-8.32-2.89l-4.18-1.39-4.2-1.31c-5.62-1.72-11.26-3.35-16.94-4.8s-11.39-2.82-17.13-4-11.49-2.31-17.26-3.25-11.57-1.8-17.38-2.51-11.62-1.31-17.44-1.78C338,588.79,349.47,590.83,360.86,593.3Zm-3.24,29.21q7.71,1.71,15.36,3.72,15.27,4,30.19,9.11c9.93,3.43,19.73,7.2,29.33,11.41,4.8,2.13,9.57,4.29,14.27,6.61s9.35,4.73,14,7.18l3.44,1.9,1.72.95,1.71,1,3.41,1.95,3.37,2,1.69,1,1.68,1,3.35,2c2.21,1.4,4.44,2.78,6.62,4.22,4.4,2.84,8.73,5.8,13,8.8,2.15,1.49,4.28,3,6.4,4.55s4.24,3.1,6.33,4.68q6.28,4.73,12.5,9.58c4.14,3.24,8.26,6.52,12.4,9.8s8.32,6.54,12.6,9.71l3.2,2.36,3.24,2.32,1.62,1.16,1.64,1.14L564,733q13.18,9,27,16.91t28.23,14.74q14.4,6.81,29.22,12.63c2.48,1,4.94,1.92,7.43,2.84l7.47,2.73,7.51,2.59c2.51.84,5,1.65,7.55,2.47,1.26.42,2.53.81,3.79,1.2l3.8,1.16c2.53.79,5.08,1.51,7.62,2.25l3.81,1.09,3.83,1,3.84,1,1.91.52,1.93.48c10.24,2.67,20.57,5,30.93,7.08s20.77,3.91,31.21,5.5,20.92,2.89,31.41,4h0l-7.79-1.37-3.9-.68-3.89-.73-7.77-1.44-7.75-1.55c-10.33-2.11-20.63-4.3-30.85-6.81l-3.84-.92-3.82-1-3.83-1-1.91-.49-1.9-.51-7.62-2.05L710,792.65l-1.9-.54-1.89-.57-3.77-1.13-3.78-1.13-3.75-1.19c-2.51-.79-5-1.57-7.5-2.42l-3.74-1.25c-1.24-.41-2.49-.82-3.72-1.26a513.33,513.33,0,0,1-58.15-23.95c-1.18-.56-2.34-1.16-3.51-1.75l-3.52-1.75c-2.33-1.19-4.64-2.42-7-3.62s-4.61-2.49-6.9-3.75l-3.41-1.93c-1.15-.64-2.29-1.28-3.41-1.95q-13.59-7.86-26.57-16.71l-3.23-2.23-1.61-1.12-1.6-1.14L557.9,721l-3.16-2.32c-4.21-3.09-8.33-6.32-12.49-9.56-8.3-6.49-16.62-13-25.19-19.29a399.92,399.92,0,0,0-54-33.66l-3.56-1.79-1.78-.89-1.79-.87-3.6-1.72c-1.19-.57-2.41-1.11-3.61-1.66-4.82-2.23-9.71-4.29-14.62-6.29-1.23-.5-2.47-1-3.7-1.46s-2.47-1-3.71-1.43L423,638.66c-1.24-.46-2.49-.91-3.74-1.34L415.47,636c-.63-.21-1.25-.44-1.88-.64l-1.89-.61c-2.53-.81-5-1.64-7.58-2.39q-15.21-4.59-30.74-7.87-7.77-1.62-15.57-2.95c-5.22-.86-10.44-1.64-15.67-2.29C347.32,620.29,352.48,621.34,357.62,622.51Zm13.63,33h0a402.56,402.56,0,0,1,49.24,17q12,5,23.61,10.89l2.9,1.47,2.88,1.51c.95.51,1.92,1,2.87,1.51l2.85,1.56c1.91,1,3.79,2.1,5.68,3.16s3.74,2.18,5.61,3.27a449,449,0,0,1,43,29.19c6.9,5.25,13.69,10.65,20.49,16.08,3.4,2.71,6.82,5.42,10.3,8.07,1.75,1.33,3.52,2.61,5.27,3.91s3.5,2.62,5.31,3.86c3.59,2.49,7.15,5,10.83,7.39l5.48,3.6,5.58,3.45,2.8,1.72,1.39.86,1.42.82,5.68,3.28,2.84,1.64c1,.55,1.92,1,2.88,1.57l5.77,3.1,2.89,1.55,2.93,1.47,5.87,2.93c1,.48,1.95,1,2.93,1.45l3,1.38,6,2.74,3,1.37,3,1.29,6,2.56,3,1.28c1,.43,2,.8,3,1.21l6.1,2.37,3,1.19,1.52.6,1.54.55,6.17,2.2,6.16,2.2c2.06.71,4.15,1.35,6.22,2l6.23,2c1,.33,2.07.67,3.11,1l3.14.91c4.19,1.22,8.37,2.45,12.56,3.64q25.26,6.78,51,11.47h0c-16.92-4.09-33.75-8.43-50.37-13.51l-12.4-4-3.1-1c-1-.34-2-.71-3.08-1.07l-6.14-2.16c-2-.72-4.09-1.42-6.13-2.16l-6.09-2.3-6.08-2.31-1.52-.58-1.5-.62-3-1.24-6-2.48c-1-.42-2-.81-3-1.26l-3-1.32-5.94-2.64-3-1.31-2.93-1.4-5.86-2.8-2.93-1.4c-1-.48-1.93-1-2.9-1.47l-5.78-3-2.89-1.48-2.85-1.56-5.69-3.13c-.95-.52-1.91-1-2.84-1.57l-2.8-1.64-5.61-3.27-1.39-.83-1.38-.85-2.75-1.72-5.52-3.43-5.41-3.57c-3.64-2.34-7.15-4.87-10.71-7.34-1.79-1.21-3.51-2.53-5.26-3.8s-3.49-2.55-5.22-3.86c-3.44-2.61-6.84-5.3-10.25-8-6.84-5.38-13.68-10.79-20.68-16-3.49-2.61-7-5.17-10.59-7.71s-7.17-5-10.82-7.39-7.32-4.77-11-7.07q-2.81-1.7-5.62-3.38l-2.83-1.65c-.94-.55-1.88-1.1-2.84-1.63-1.91-1.06-3.8-2.16-5.73-3.18s-3.83-2.09-5.78-3.08l-2.91-1.52c-1-.5-2-1-2.92-1.46l-2.94-1.46-3-1.4c-7.9-3.73-15.92-7.19-24.06-10.32a346.72,346.72,0,0,0-50-15ZM398,701h0a308.16,308.16,0,0,1,37.65,13q9.18,3.86,18.06,8.33l2.22,1.13,2.19,1.15c.74.39,1.48.77,2.2,1.16l2.19,1.19c1.46.78,2.89,1.6,4.33,2.42s2.87,1.66,4.3,2.5A342.49,342.49,0,0,1,504,754.21c5.28,4,10.47,8.14,15.67,12.3,2.61,2.07,5.22,4.14,7.89,6.17,1.33,1,2.68,2,4,3s2.68,2,4.06,3c2.75,1.9,5.47,3.85,8.29,5.65l4.19,2.76,4.27,2.64,2.13,1.31,1.07.66,1.08.63,4.35,2.5L563.2,796c.72.42,1.47.8,2.2,1.21l4.42,2.37,2.21,1.18,2.24,1.12,4.48,2.24c.75.37,1.49.76,2.25,1.12l2.27,1,4.55,2.1,2.28,1,2.3,1,4.61,2,2.3,1c.77.33,1.56.61,2.33.92l4.67,1.82,2.33.91,1.16.45,1.18.43,4.71,1.68,4.72,1.68c1.57.54,3.17,1,4.75,1.55l4.77,1.53,2.38.76,2.4.7c3.2.92,6.4,1.87,9.61,2.78q19.3,5.19,39,8.77h0c-12.94-3.13-25.82-6.45-38.52-10.33l-9.49-3-2.37-.76-2.35-.82-4.7-1.65c-1.56-.56-3.13-1.09-4.69-1.66l-4.65-1.76-4.65-1.76-1.17-.45-1.14-.47-2.3-.95-4.6-1.9c-.76-.32-1.54-.62-2.29-1l-2.27-1-4.55-2-2.27-1L589,805.76l-4.48-2.14-2.24-1.07c-.75-.36-1.48-.75-2.22-1.13l-4.42-2.26L573.47,798l-2.18-1.2-4.35-2.38c-.72-.41-1.46-.79-2.17-1.21L562.62,792l-4.28-2.51-1.07-.62-1-.66-2.11-1.31-4.21-2.62-4.15-2.74c-2.78-1.79-5.47-3.72-8.18-5.61-1.37-.93-2.69-1.93-4-2.91s-2.68-2-4-3c-2.63-2-5.23-4-7.84-6.11-5.23-4.11-10.46-8.25-15.81-12.24-2.67-2-5.38-4-8.1-5.89s-5.48-3.82-8.27-5.66-5.61-3.64-8.45-5.4l-4.29-2.59-2.17-1.26c-.72-.42-1.44-.84-2.17-1.25-1.46-.81-2.91-1.65-4.38-2.43s-2.94-1.6-4.42-2.36l-2.23-1.15c-.74-.39-1.49-.75-2.24-1.13l-2.24-1.11-2.26-1.07q-9.06-4.29-18.4-7.9A267.51,267.51,0,0,0,398,701Z"/><text class="cls-2" transform="translate(721.1 593.73)"><tspan class="cls-3">С</tspan><tspan class="cls-4" x="115.08" y="0">Т</tspan><tspan class="cls-5" x="221.04" y="0">Р</tspan><tspan x="335.33" y="0">ЕМ</tspan><tspan class="cls-6" x="593.32" y="0">Е</tspan><tspan class="cls-7" x="697.55" y="0">Ж</tspan><tspan class="cls-8"><tspan x="571.37" y="65.2">С</tspan><tspan class="cls-9" x="623.42" y="65.2">К</tspan><tspan x="673.37" y="65.2">ОПЈЕ</tspan></tspan></text></svg>