<svg id="Layer_1" data-name="Layer 1" xmlns="http://www.w3.org/2000/svg" xmlns:xlink="http://www.w3.org/1999/xlink" viewBox="0 0 1920 1080"><defs><style>.cls-1{fill:url(#linear-gradient);}.cls-2{fill:#15368c;}.cls-10,.cls-3,.cls-4,.cls-5,.cls-6,.cls-8,.cls-9{fill:none;}.cls-10,.cls-3,.cls-4,.cls-5,.cls-6,.cls-7,.cls-8,.cls-9{stroke-miterlimit:10;}.cls-3,.cls-7{stroke-width:5px;}.cls-3{stroke:url(#linear-gradient-2);}.cls-4,.cls-8{stroke-width:4px;}.cls-4{stroke:url(#linear-gradient-3);}.cls-5,.cls-9{stroke-width:3px;}.cls-5{stroke:url(#linear-gradient-4);}.cls-10,.cls-6{stroke-width:2px;}.cls-6{stroke:url(#linear-gradient-5);}.cls-7{fill:url(#linear-gradient-6);stroke:url(#linear-gradient-7);}.cls-8{stroke:url(#linear-gradient-8);}.cls-9{stroke:url(#linear-gradient-9);}.cls-10{stroke:url(#linear-gradient-10);}.cls-11{fill:#d4025e;}</style><linearGradient id="linear-gradient" x1="580.52" y1="504.22" x2="1531" y2="504.22" gradientUnits="userSpaceOnUse"><stop offset="0" stop-color="#15368c"/><stop offset="0.15" stop-color="#19358b"/><stop offset="0.29" stop-color="#253288"/><stop offset="0.44" stop-color="#392c83"/><stop offset="0.58" stop-color="#54257d"/><stop offset="0.72" stop-color="#781b74"/><stop offset="0.86" stop-color="#a30f6a"/><stop offset="1" stop-color="#d4025e"/></linearGradient><linearGradient id="linear-gradient-2" x1="366.35" y1="703.91" x2="470.9" y2="703.91" gradientUnits="userSpaceOnUse"><stop offset="0" stop-color="#15368c"/><stop offset="1" stop-color="#fff"/></linearGradient><linearGradient id="linear-gradient-3" x1="355.91" y1="667.2" x2="470.61" y2="667.2" xlink:href="#linear-gradient-2"/><linearGradient id="linear-gradient-4" x1="354.42" y1="632.45" x2="445.62" y2="632.45" xlink:href="#linear-gradient-2"/><linearGradient id="linear-gradient-5" x1="358.84" y1="598.47" x2="403.7" y2="598.47" xlink:href="#linear-gradient-2"/><linearGradient id="linear-gradient-6" x1="393.4" y1="403.23" x2="497.89" y2="403.23" gradientUnits="userSpaceOnUse"><stop offset="0" stop-color="#15368c"/><stop offset="1" stop-color="#d4025e"/></linearGradient><linearGradient id="linear-gradient-7" x1="393.37" y1="403.23" x2="497.92" y2="403.23" gradientUnits="userSpaceOnUse"><stop offset="0" stop-color="#fff"/><stop offset="1" stop-color="#15368c"/></linearGradient><linearGradient id="linear-gradient-8" x1="386.63" y1="436.58" x2="501.32" y2="436.58" xlink:href="#linear-gradient-7"/><linearGradient id="linear-gradient-9" x1="388.89" y1="467.51" x2="480.08" y2="467.51" xlink:href="#linear-gradient-7"/><linearGradient id="linear-gradient-10" x1="392.37" y1="492.25" x2="454.95" y2="492.25" xlink:href="#linear-gradient-7"/></defs><title>2. STREMEZ (1)</title><path class="cls-1" d="M613.08,560.16a61.2,61.2,0,0,1-23.91-22.93,67,67,0,0,1,.09-66,61.84,61.84,0,0,1,24-22.93A70.35,70.35,0,0,1,647.43,440a71.21,71.21,0,0,1,28,5.35,57.15,57.15,0,0,1,21.42,15.52l-15,14.1a43.72,43.72,0,0,0-33.37-14.63,46.73,46.73,0,0,0-23,5.62,40.41,40.41,0,0,0-15.88,15.61,47.82,47.82,0,0,0,0,45.32,40.34,40.34,0,0,0,15.88,15.61,46.73,46.73,0,0,0,23,5.62q19.82,0,33.37-14.81l15,14.28a57,57,0,0,1-21.5,15.52,72,72,0,0,1-28.11,5.35A70.35,70.35,0,0,1,613.08,560.16ZM807.66,461.4h-41.4V566.67h-23V461.4H702V441.77H807.66Zm99.65-14.28a41.19,41.19,0,0,1,18.47,15.35q6.42,10,6.42,23.73,0,13.56-6.42,23.64a40.91,40.91,0,0,1-18.47,15.43q-12,5.36-28.28,5.36H850.84v36h-23.2V441.77H879Q895.26,441.77,907.31,447.12ZM901,504.58q7.86-6.43,7.86-18.38T901,467.82q-7.85-6.42-23-6.42H850.84V511H878Q893.13,511,901,504.58Zm146.85,42.64v19.45H954.15V441.77h91.17v19.45h-68v32.47h60.31v19.09H977.34v34.44Zm140.6,19.45-.18-82.79-41,68.52h-10.35l-41-67.45v81.72h-22V441.77H1093l49.43,82.61,48.88-82.61h18.92l.35,124.9Zm150.77-19.45v19.45h-93.67V441.77h91.17v19.45h-68v32.47H1329v19.09h-60.31v34.44ZM1472.83,514h-21.41v52.64h-22.66V514h-21.41l-31.58,52.64H1349l39.26-65.13-36.58-59.77h24.62l30.51,52.28h22V441.77h22.66v52.28H1473l30.69-52.28h24.62l-36.4,60L1531,566.67h-26.76Z"/><path class="cls-2" d="M603.05,680.21A43.33,43.33,0,0,1,586.44,664a47.6,47.6,0,0,1,0-46.52,43.38,43.38,0,0,1,16.61-16.23,47.84,47.84,0,0,1,23.71-5.88,49.81,49.81,0,0,1,17.89,3.13,36.9,36.9,0,0,1,13.93,9.27L654.49,612Q643.77,601.36,627,601.35a41.34,41.34,0,0,0-20.44,5.11,37.49,37.49,0,0,0-14.45,14.12,41.29,41.29,0,0,0,0,40.26A37.45,37.45,0,0,0,606.57,675,41.45,41.45,0,0,0,627,680.08q16.62,0,27.48-10.74l4.09,4.22a37.41,37.41,0,0,1-14,9.33,48.94,48.94,0,0,1-17.83,3.2A47.84,47.84,0,0,1,603.05,680.21Z"/><path class="cls-2" d="M698.07,643H676.6v42.44h-6.52V596h6.52v41.16h21.6L730.28,596h7.29l-34.26,43.58,36.56,45.89H732.2Z"/><path class="cls-2" d="M760.7,680.14A43.79,43.79,0,0,1,744,663.85a47.12,47.12,0,0,1,0-46.27,43.79,43.79,0,0,1,16.68-16.29,47.69,47.69,0,0,1,23.77-5.95,48.17,48.17,0,0,1,23.77,5.88,43.36,43.36,0,0,1,16.68,16.23,47.6,47.6,0,0,1,0,46.52,43.31,43.31,0,0,1-16.68,16.24,50.72,50.72,0,0,1-47.54-.07ZM804.79,675a37.73,37.73,0,0,0,14.32-14.13,41.29,41.29,0,0,0,0-40.26,37.77,37.77,0,0,0-14.32-14.12,43.08,43.08,0,0,0-40.7,0,37.51,37.51,0,0,0-14.38,14.12,41.29,41.29,0,0,0,0,40.26A37.47,37.47,0,0,0,764.09,675a43.08,43.08,0,0,0,40.7,0Z"/><path class="cls-2" d="M919.18,596v89.47h-6.52V601.86H852.08v83.59h-6.52V596Z"/><path class="cls-2" d="M938.92,682.7a27,27,0,0,1-10.16-9.4l4-4.34a26.45,26.45,0,0,0,8.76,8.37,21.9,21.9,0,0,0,11,2.88q9,0,13.36-5.18t4.41-15.91V601.86h-33V596h39.49v63.14q0,13.41-6.14,20.19t-18.15,6.78A28.4,28.4,0,0,1,938.92,682.7Z"/><path class="cls-2" d="M1059.89,679.57v5.88H998.16V596H1058v5.88h-53.29v35.28h47.67v5.75h-47.67v36.68Z"/><line class="cls-3" x1="470.87" y1="704.56" x2="366.38" y2="703.27"/><line class="cls-4" x1="470.58" y1="667.91" x2="355.94" y2="666.49"/><line class="cls-5" x1="445.6" y1="633.01" x2="354.44" y2="631.89"/><line class="cls-6" x1="403.7" y1="598.47" x2="358.84" y2="598.47"/><line class="cls-7" x1="497.89" y1="402.59" x2="393.4" y2="403.88"/><line class="cls-8" x1="501.3" y1="435.87" x2="386.65" y2="437.29"/><line class="cls-9" x1="480.07" y1="466.94" x2="388.9" y2="468.07"/><line class="cls-10" x1="454.93" y1="491.86" x2="392.39" y2="492.63"/><path class="cls-11" d="M513.89,351.15c-3.56,12.87-.33,23,7.75,27.5,8.68,4.87,20.41,2.38,28-6.1,7.19-8,11.7-16.9,9.35-28.18-2.67-12.82-15-19.21-27-13.65C522.43,335.17,515.61,342.13,513.89,351.15Z"/><path class="cls-11" d="M515.67,335.75c2.73-12.29-2.27-23-11.77-25.2-9.95-2.31-20.53,5.94-23.15,18.06-2.53,11.66,3,23.13,12.16,25.15S513.2,346.83,515.67,335.75Z"/><path class="cls-11" d="M448.71,320.45c-2.89,11.25,1.56,21.38,10.25,23.36,7.37,1.69,13.68-3.05,16-12,2.84-10.92-1.76-21.08-10.53-23.24C456.76,306.65,451.15,310.89,448.71,320.45Z"/><path class="cls-11" d="M442.24,338.4c2.4-9.15-2.28-19-9.14-20.58-5.37-1.26-11.51,3.39-13,9.83-1.77,7.76,3.16,17.56,9.77,18.72C436.8,347.58,440.48,343.61,442.24,338.4Z"/><path class="cls-11" d="M418.69,350.08c1.49-7-2.61-15.07-8.06-16.16-5.69-1.14-9.56,1.47-10.84,7.12-1.4,6.16,3.13,13.47,9,14.86C414.4,357.23,417.43,354.4,418.69,350.08Z"/><circle class="cls-2" cx="390.12" cy="365.74" r="8.25"/><circle class="cls-2" cx="374.84" cy="395.32" r="10.83"/><circle class="cls-2" cx="365.68" cy="429.57" r="12.84"/><circle class="cls-2" cx="358.12" cy="465.83" r="16.43"/><circle class="cls-2" cx="370.99" cy="507.63" r="19.13"/><circle class="cls-2" cx="511.13" cy="730.56" r="7.29"/><circle class="cls-2" cx="511.83" cy="707.11" r="8.25"/><circle class="cls-2" cx="504.65" cy="674.6" r="10.83"/><circle class="cls-2" cx="489.79" cy="642.41" r="12.84"/><circle class="cls-2" cx="472.4" cy="609.71" r="16.43"/><circle class="cls-2" cx="435.78" cy="585.8" r="19.13"/><circle class="cls-2" cx="371.92" cy="577.01" r="7.29"/><circle class="cls-2" cx="363.36" cy="598.86" r="8.25"/><circle class="cls-2" cx="359.17" cy="631.89" r="10.83"/><circle class="cls-2" cx="362.33" cy="667.2" r="12.84"/><circle class="cls-2" cx="367.68" cy="703.84" r="16.43"/><circle class="cls-2" cx="394.12" cy="738.68" r="19.13"/><circle class="cls-2" cx="427.86" cy="514.43" r="7.29"/><circle class="cls-2" cx="450.1" cy="493.08" r="8.25"/><circle class="cls-2" cx="473.71" cy="469.6" r="10.83"/><circle class="cls-2" cx="492.93" cy="439.81" r="12.84"/><circle class="cls-2" cx="511.24" cy="407.62" r="16.43"/><circle class="cls-2" cx="400.02" cy="550.56" r="23.8"/></svg>